HIERARCHY
ROOT Hips
{
	OFFSET 0.00000 0.00000 0.00000
	CHANNELS 6 Xposition Yposition Zposition Yrotation Zrotation Xrotation 
	JOINT Lumbar
	{
		OFFSET 0 0 0
		CHANNELS 3 Zrotation Xrotation Yrotation
		JOINT Neck
		{
			OFFSET 0.00 0.2701 0.00
			CHANNELS 3 Zrotation Xrotation Yrotation
			End Site
			{
				OFFSET 0.00 0.1379 0.00
			}
		}
		JOINT RightShoulder
		{
			OFFSET 0.0119 0.2289 0.1181
			CHANNELS 3 Zrotation Xrotation Yrotation
			JOINT RightElbow
			{
				OFFSET 0.00 -0.1475 0.00
				CHANNELS 2 Zrotation Yrotation
				JOINT RightWrist
				{
					OFFSET 0.00 -0.1605 0.00
					CHANNELS 2 Zrotation Xrotation
					End Site
					{
						OFFSET 0.0040 -0.1068 0.0006
					}
				}
			}
		}
		JOINT LeftShoulder
		{
			OFFSET 0.0119 0.2289 -0.1181
			CHANNELS 3 Zrotation Xrotation Yrotation
			JOINT LeftElbow
			{
				OFFSET 0.00 -0.1475 0.00
				CHANNELS 2 Zrotation Yrotation
				JOINT LeftWrist
				{
					OFFSET 0.00 -0.1605 0.00
					CHANNELS 2 Zrotation Xrotation
					End Site
					{
						OFFSET 0.0040 -0.1068 -0.0006
					}
				}
			}
		}
	}
	JOINT RightHip
	{
		OFFSET 0.0316 -0.0424 0.0458
		CHANNELS 3 Zrotation Xrotation Yrotation
		JOINT RightKnee
		{
			OFFSET 0.00 -0.2438 0.00
			CHANNELS 1 Zrotation
			JOINT RightAnkle
			{
				OFFSET 0.00 -0.2449 0.00
				CHANNELS 3 Zrotation Xrotation Yrotation
				End Site
				{
					OFFSET 0.1237 -0.0542 0.0051
				}
			}
		}
	}
	JOINT LeftHip
	{
		OFFSET 0.0316 -0.0424 -0.0458
		CHANNELS 3 Zrotation Xrotation Yrotation
		JOINT LeftKnee
		{
			OFFSET 0.00 -0.2438 0.00
			CHANNELS 1 Zrotation
			JOINT LeftAnkle
			{
				OFFSET 0.00 -0.2449 0.00
				CHANNELS 3 Zrotation Xrotation Yrotation
				End Site
				{
					OFFSET 0.1237 -0.0542 -0.0051
				}
			}
		}
	}
}
MOTION
Frames: 11
Frame Time: 0.02
-0 0.57926 0 183.04271 0 -4.25233 7.92268 2.20307 -4.59157 -27.96471 4.66415 3.32818 25.73384 -17.89167 14.60606 12.18921 82.11843 -1.45209 -4.84644 23.38664 8.5471 -14.83538 10.49857 -83.07398 -3.78638 3.60402 -5.92014 5.04999 -5.37602 -5.14186 -11.05883 -1.7662 -7.21899 -7.60246 6.75254 17.33828 -1.05249 -6.83277 1.86268 3.27649
0.0004 0.57947 -0.00084 183.19506 0 -4.22523 7.82652 2.2842 -4.6027 -27.96901 4.85109 3.50611 25.7601 -18.21069 14.58937 12.23158 82.16643 -1.44872 -4.84193 23.41292 8.17682 -13.73537 10.30417 -82.88136 -3.7149 3.49219 -5.80674 5.10077 -5.43723 -5.3006 -11.1105 -1.75324 -7.31619 -7.41274 6.81553 17.19019 -1.2508 -6.91828 1.87262 3.42823
0.00081 0.57967 -0.00168 183.34769 0 -4.19809 7.72684 2.36486 -4.6151 -27.9701 5.03879 3.6843 25.78537 -18.53072 14.57655 12.27387 82.21401 -1.44543 -4.83755 23.43931 7.80652 -12.64292 10.1103 -82.68952 -3.6434 3.38065 -5.69188 5.15105 -5.49892 -5.46004 -11.16176 -1.74038 -7.4138 -7.22118 6.87829 17.04186 -1.45054 -7.00314 1.88244 3.57885
0.00126 0.57988 -0.00251 183.50246 0 -4.1704 7.61857 2.44432 -4.63183 -27.96463 5.22806 3.86468 25.80902 -18.85435 14.57292 12.31539 82.26014 -1.44173 -4.83309 23.46855 7.43549 -11.56729 9.91542 -82.49901 -3.57016 3.2676 -5.57236 5.19985 -5.5621 -5.62332 -11.21118 -1.72793 -7.51358 -7.02338 6.9406 16.89248 -1.65629 -7.08573 1.89201 3.72599
0.0015 0.58009 -0.00339 183.6453 0 -4.14547 7.56363 2.52997 -4.62465 -28.00153 5.40505 4.03285 25.84382 -19.1547 14.51327 12.35995 82.31367 -1.43938 -4.82835 23.48538 7.07184 -10.39924 9.72435 -82.30155 -3.505 3.16064 -5.48029 5.25652 -5.61617 -5.7656 -11.26947 -1.71346 -7.60134 -6.86223 7.00515 16.75027 -1.8282 -7.17973 1.90305 3.89098
0.00221 0.58029 -0.00415 183.81363 0 -4.11483 7.3906 2.60258 -4.66871 -27.94359 5.61054 4.22707 25.85326 -19.50682 14.57712 12.39873 82.35168 -1.43476 -4.82469 23.52657 6.69057 -9.4301 9.52647 -82.11893 -3.4236 3.04217 -5.32836 5.29647 -5.6903 -5.9526 -11.30953 -1.70319 -7.7148 -6.62127 7.06499 16.59193 -2.07287 -7.24994 1.91088 4.01846
0.00415 0.58045 -0.00457 184.05595 0 -4.0662 6.91795 2.63889 -4.85393 -27.65339 5.88 4.49569 25.80343 -19.99187 14.95399 12.41652 82.34471 -1.41875 -4.82059 23.65261 6.26963 -8.98543 9.29552 -81.97474 -3.28674 2.87721 -5.01592 5.29 -5.81607 -6.2701 -11.29345 -1.70546 -7.90213 -6.16521 7.11231 16.39185 -2.5215 -7.25023 1.91038 4.0389
0.00659 0.5806 -0.00487 184.32341 0 -4.01221 6.31978 2.66231 -5.09024 -27.25997 6.18075 4.78894 25.72501 -20.53054 15.46047 12.42968 82.32244 -1.40144 -4.81851 23.79894 5.82981 -8.74632 9.06064 -81.84619 -3.13536 2.70342 -4.64131 5.26673 -5.96237 -6.63239 -11.25983 -1.71184 -8.11525 -5.62692 7.15486 16.17451 -3.04346 -7.22726 1.90656 4.02235
0.00886 0.58075 -0.00521 184.57755 0 -3.96201 5.76232 2.69165 -5.30484 -26.89623 6.4778 5.07154 25.65378 -21.05319 15.92717 12.44792 82.30854 -1.388 -4.81738 23.92628 5.39087 -8.42789 8.83579 -81.71153 -2.99726 2.54266 -4.29228 5.25128 -6.10258 -6.96932 -11.23825 -1.71567 -8.31466 -5.12236 7.19932 15.96324 -3.53054 -7.21776 1.90386 4.02471
0.01089 0.58091 -0.00558 184.84044 0 -3.9059 5.27756 2.72 -5.51683 -26.61218 6.73251 5.35794 25.61092 -21.54485 16.3157 12.45253 82.28868 -1.36053 -4.80722 24.09985 4.9802 -8.04725 8.57377 -81.57127 -2.8307 2.34271 -3.9567 5.23497 -6.23135 -7.32499 -11.2003 -1.7222 -8.52166 -4.63382 7.24481 15.76036 -4.02437 -7.19619 1.90265 4.01727
0.01355 0.58105 -0.00587 185.0901 0 -3.86104 4.60691 2.74821 -5.74167 -26.12893 7.08022 5.6346 25.49733 -22.10841 16.89461 12.48578 82.27755 -1.36219 -4.8178 24.17568 4.51154 -7.84853 8.39129 -81.44818 -2.72033 2.22374 -3.57568 5.21656 -6.38601 -7.65523 -11.19128 -1.72432 -8.71995 -4.09164 7.28712 15.53479 -4.52127 -7.19401 1.89775 4.02264
